<?xml version="1.0" encoding="utf-8"?>
<!-- Generator: Adobe Illustrator 19.2.1, SVG Export Plug-In . SVG Version: 6.00 Build 0)  -->
<svg version="1.1" id="Lager_1" xmlns="http://www.w3.org/2000/svg" xmlns:xlink="http://www.w3.org/1999/xlink" x="0px" y="0px"
	 viewBox="0 0 104.9 27.6" style="enable-background:new 0 0 104.9 27.6;" xml:space="preserve">
<style type="text/css">
	.st0{fill:#808080;}
</style>
<g>
	<path class="st0" d="M84,19.5c0.2,2.1,1.7,4.2,4.4,4.2c1.6,0,3.2-0.7,3.9-2.1h5c-1.2,3.4-4.7,6-8.9,6c-5.2,0-9.5-4.1-9.5-9.5
		c0-5.6,4.4-9.6,9.5-9.6c4.9,0,9.5,3.9,9.5,9.6l-0.1,1.4H84z M92.6,16.2c-0.2-1.8-1.8-3.7-4.2-3.7c-2.4,0-4,2-4.3,3.7H92.6z"/>
	<path class="st0" d="M3,0.3c1.5,0,3,1.3,3,2.9s-1.3,3-3,3S0,4.7,0,3.3C0.1,1.8,1.4,0.3,3,0.3"/>
	<rect x="0.5" y="8.9" class="st0" width="5.1" height="18.1"/>
	<path class="st0" d="M21.5,7.5c0-1.8-1.8-3-3.9-3c-2.6,0-4.2,1.2-4.2,2.9c0,1.8,1.8,2.7,3.1,3.1l4.9,1.6c3.5,1.1,6,3.2,6,7.3
		c0,3.2-2.3,8.1-9.7,8.1c-9.2,0-10-6-10-8.3l5.3-0.1c0,2.8,2.2,3.9,4.8,3.9c1.8,0,4.3-0.9,4.3-2.9c0-1.4-0.6-2.1-3.2-3.1l-5.8-2.1
		c-2.9-1.1-5-3.6-5-6.6c0-3.4,2.3-8.2,9.2-8.2c8.2,0,9.5,5.4,9.5,7.4L21.5,7.5z"/>
	<path class="st0" d="M28.3,8.9h2.3V3.7h5.1v5.2h2.7v3.9h-2.7V22c0,0.8,0.4,1.2,1.7,1.2c0.4,0,0.7,0,1-0.1v4
		c-0.8,0.1-1.6,0.2-2.4,0.2c-3.3,0-5.3-0.8-5.3-4.7v-9.7h-2.3L28.3,8.9L28.3,8.9z"/>
	<path class="st0" d="M71.9,16.7c0-2.6-1.6-3.5-3.2-3.5c-2,0-3.3,1.8-3.3,4.2V27h-5.1V8.9h4.9v2.4h0.1c1.5-2.2,3.3-2.9,5.4-2.9
		c4.4,0,6.3,2.8,6.3,6.3V27h-5.1C71.9,27,71.9,16.7,71.9,16.7z"/>
	<path class="st0" d="M100.9,21.5c1.6,0,3,1.3,3,3c0,1.6-1.3,3-3,3c-1.6,0-3-1.3-3-3C97.9,22.9,99.3,21.5,100.9,21.5"/>
	<path class="st0" d="M48.8,13.3c2.6,0,4.7,2.1,4.7,4.7s-2.2,4.7-4.7,4.7c-2.6,0-4.7-2.1-4.7-4.7S46.3,13.3,48.8,13.3 M48.8,8.4
		c-5.3,0-9.5,4.3-9.5,9.5c0,5.3,4.3,9.5,9.5,9.5c5.3,0,9.5-4.3,9.5-9.5C58.4,12.7,54.1,8.4,48.8,8.4"/>
	<path class="st0" d="M48.8,13.3c2.6,0,4.7,2.1,4.7,4.7s-2.2,4.7-4.7,4.7c-2.6,0-4.7-2.1-4.7-4.7S46.3,13.3,48.8,13.3 M48.8,8.4
		c-5.3,0-9.5,4.3-9.5,9.5c0,5.3,4.3,9.5,9.5,9.5c5.3,0,9.5-4.3,9.5-9.5C58.4,12.7,54.1,8.4,48.8,8.4"/>
</g>
</svg>
