<?xml version="1.0" encoding="utf-8"?>
<!-- Generator: Adobe Illustrator 19.2.1, SVG Export Plug-In . SVG Version: 6.00 Build 0)  -->
<svg version="1.1" id="Layer_1" xmlns="http://www.w3.org/2000/svg" xmlns:xlink="http://www.w3.org/1999/xlink" x="0px" y="0px"
	 viewBox="0 0 832.5 186.5" style="enable-background:new 0 0 832.5 186.5;" xml:space="preserve">
<style type="text/css">
	.st0{fill:#808080;}
</style>
<path class="st0" d="M0,138l6.1-15.4c10.4,4.3,19.2,6.7,32.2,6.7c15.1,0,29.2-5,29.2-19.3C67.5,80.3,3.7,87.5,3.7,44
	c0-22.5,19.7-33.1,41.3-33.1c16.7,0,26,3.3,34.6,7.1L74,32.5c-8.4-2.8-16-5.2-28.5-5.2c-14,0-22.7,5.4-22.7,16.2
	c0,26,64.5,23.2,64.5,65.3c0,26.2-22.7,37.6-48.7,37.6C18.8,146.3,8,142.2,0,138z"/>
<path class="st0" d="M167.2,94.4c0-34.8,20.1-54.5,48.5-54.5c32,0,47.2,19.7,47.2,53.4c0,35.3-20.6,53-48.5,53
	C184.6,146.3,167.2,127.2,167.2,94.4z M243.2,93.3c0-18-5.4-37.8-28.1-37.8c-22.3,0-28.3,19.5-28.3,37.9c0,20.1,6.9,37,28.6,37
	C237.6,130.5,243.2,112.7,243.2,93.3z"/>
<path class="st0" d="M278.1,42.5h19.3v13.6c4.8-7.2,14.7-15.8,28.3-15.8c6,0,10.1,0.9,12.5,1.7l-3,16.4c-3.9-0.9-6.7-1.3-12.5-1.3
	c-11.4,0-20.6,7.4-25.3,14.1v72.9h-19.3L278.1,42.5L278.1,42.5z"/>
<path class="st0" d="M350.7,42.5H370v11.5c8.4-6.7,20.5-13.9,32.9-13.9c15.6,0,24.2,6.3,28.1,15.1c8-6.5,20.8-15.1,36.1-15.1
	c30.7,0,31.8,21.8,31.8,39.1v64.9h-19.3V82c0-14.9-2.6-24.9-18.4-24.9c-9.9,0-19.9,5.2-27.7,10.4c0.7,3.7,0.9,7.8,0.9,11.5v65.1
	h-19.2V82c0-15.2-2.2-24.9-18.2-24.9c-8.7,0-19.5,5.8-27,10.8v76.2h-19.3L350.7,42.5L350.7,42.5z"/>
<path class="st0" d="M581.4,94.4c0-34.8,20.1-54.5,48.5-54.5c32,0,47.2,19.7,47.2,53.4c0,35.3-20.6,53-48.5,53
	C598.9,146.3,581.4,127.2,581.4,94.4z M657.4,93.3c0-18-5.4-37.8-28.1-37.8c-22.3,0-28.3,19.5-28.3,37.9c0,20.1,6.9,37,28.6,37
	C651.9,130.5,657.4,112.7,657.4,93.3z"/>
<path class="st0" d="M693.8,42.5h19.3v13.6c4.8-7.2,14.7-15.8,28.3-15.8c5.9,0,10,0.9,12.5,1.7l-3,16.4c-3.9-0.9-6.7-1.3-12.5-1.3
	c-11.4,0-20.6,7.4-25.3,14.1v72.9h-19.3L693.8,42.5L693.8,42.5z"/>
<path class="st0" d="M760.5,141.9l2.8-15.2c8.6,1.5,18.8,3.7,27.3,3.7c15.8,0,23.1-5.6,23.1-13.2c0-19.7-51.1-12.7-51.1-48
	c0-19.3,16.6-29.2,37-29.2c11.5,0,21.8,2.8,27.5,4.6l-3.4,14.9c-6.1-1.5-14-3.7-24.7-3.7c-12.3,0-17.3,5.9-17.3,12.3
	c0,19.9,50.8,14.3,50.8,47.8c0,24.2-23.2,30.3-40.2,30.3C778.6,146.1,767.8,144.1,760.5,141.9z"/>
<path class="st0" d="M546.7,166.9l-6.2,19.6l-12.9-3.9V57.9h-14.9V42.5h14.9V31.2C527.5,0.2,545,0,564.1,0c6.7,0,15.4,2,19.9,3.3
	l-2.6,16c-1.7-0.6-11.7-2.6-17.7-2.6c-13.4,0-17.1,2-17.1,14.7v11.1h31.6v15.4h-31.6L546.7,166.9z"/>
<path class="st0" d="M125.6,42.4h31.6v15.4h-31.6v56.7c0,12.7,3.7,14.7,17.1,14.7c5.9,0,16-2,17.7-2.6l2.6,16
	c-4.5,1.3-13.2,3.3-19.9,3.3c-19.2,0-36.6-0.2-36.6-31.2V57.8H91.5V42.4h14.9v-25l14.5-3.9l4.6,18.8L125.6,42.4z"/>
</svg>
