<?xml version="1.0" encoding="utf-8"?>
<!-- Generator: Adobe Illustrator 16.0.0, SVG Export Plug-In . SVG Version: 6.00 Build 0)  -->
<!DOCTYPE svg PUBLIC "-//W3C//DTD SVG 1.1//EN" "http://www.w3.org/Graphics/SVG/1.1/DTD/svg11.dtd">
<svg version="1.1" id="Layer_1" xmlns="http://www.w3.org/2000/svg" xmlns:xlink="http://www.w3.org/1999/xlink" x="0px" y="0px"
	 width="132.512px" height="30.502px" viewBox="0 0 832.512 186.502" enable-background="new 0 0 832.512 186.502"
	 xml:space="preserve">
<path fill="#3B393C" d="M0,137.952l6.13-15.441c10.417,4.281,19.161,6.691,32.179,6.691c15.068,0,29.198-5.016,29.198-19.34
	c0-29.565-63.79-22.319-63.79-65.838c0-22.496,19.717-33.099,41.284-33.099c16.742,0,26.037,3.348,34.595,7.071l-5.583,14.502
	c-8.366-2.794-15.988-5.207-28.45-5.207c-13.954,0-22.692,5.393-22.692,16.18c0,26.037,64.537,23.249,64.537,65.282
	c0,26.221-22.69,37.563-48.733,37.563C18.782,146.316,7.995,142.221,0,137.952z"/>
<path fill="#3B393C" d="M167.157,94.431c0-34.781,20.089-54.492,48.543-54.492c31.993,0,47.234,19.711,47.234,53.373
	c0,35.337-20.642,53.004-48.54,53.004C184.638,146.316,167.157,127.161,167.157,94.431z M243.222,93.312
	c0-18.034-5.393-37.752-28.079-37.752c-22.319,0-28.266,19.527-28.266,37.945c0,20.082,6.875,37.003,28.638,37.003
	C237.643,130.508,243.222,112.657,243.222,93.312z"/>
<path fill="#3B393C" d="M278.108,42.541h19.341v13.571c4.837-7.249,14.69-15.807,28.265-15.807c5.957,0,10.054,0.934,12.466,1.679
	l-2.975,16.36c-3.904-0.926-6.698-1.292-12.462-1.292c-11.35,0-20.642,7.433-25.294,14.131v72.898h-19.341V42.541L278.108,42.541z"
	/>
<path fill="#3B393C" d="M350.685,42.541h19.337v11.527c8.376-6.689,20.465-13.949,32.925-13.949
	c15.623,0,24.172,6.326,28.085,15.069c7.994-6.512,20.822-15.069,36.077-15.069c30.687,0,31.801,21.763,31.801,39.062v64.9H479.57
	V81.966c0-14.877-2.604-24.915-18.417-24.915c-9.853,0-19.898,5.201-27.706,10.414c0.74,3.718,0.926,7.812,0.926,11.525v65.09
	h-19.151V81.966c0-15.247-2.234-24.915-18.229-24.915c-8.738,0-19.531,5.759-26.972,10.784v76.246h-19.337V42.541z"/>
<path fill="#3B393C" d="M581.378,94.431c0-34.781,20.085-54.492,48.539-54.492c31.99,0,47.243,19.711,47.243,53.373
	c0,35.337-20.646,53.004-48.539,53.004C598.861,146.316,581.378,127.161,581.378,94.431z M657.444,93.312
	c0-18.034-5.396-37.752-28.083-37.752c-22.319,0-28.271,19.527-28.271,37.945c0,20.082,6.884,37.003,28.642,37.003
	C651.861,130.508,657.444,112.657,657.444,93.312z"/>
<path fill="#3B393C" d="M693.841,42.541h19.344v13.571c4.834-7.249,14.698-15.807,28.271-15.807c5.949,0,10.044,0.934,12.456,1.679
	l-2.971,16.36c-3.908-0.926-6.696-1.292-12.46-1.292c-11.351,0-20.646,7.433-25.296,14.131v72.898h-19.344V42.541z"/>
<path fill="#3B393C" d="M760.538,141.854l2.785-15.25c8.558,1.482,18.788,3.725,27.34,3.725c15.808,0,23.059-5.582,23.059-13.205
	c0-19.717-51.139-12.652-51.139-47.982c0-19.349,16.553-29.202,37.009-29.202c11.531,0,21.762,2.792,27.528,4.647l-3.351,14.874
	c-6.145-1.487-13.953-3.713-24.735-3.713c-12.276,0-17.293,5.949-17.293,12.271c0,19.901,50.771,14.324,50.771,47.799
	c0,24.182-23.249,30.318-40.178,30.318C778.577,146.135,767.792,144.081,760.538,141.854z"/>
<path fill="#3B393C" d="M546.652,166.883l-6.211,19.619l-12.939-3.861V57.945h-14.878v-15.43h14.878V31.24
	c0-31.059,17.481-31.24,36.64-31.24c6.69,0,15.433,2.045,19.892,3.347l-2.596,15.994c-1.673-0.562-11.719-2.604-17.672-2.604
	c-13.385,0-17.107,2.042-17.107,14.697v11.081h31.615v15.43h-31.615L546.652,166.883z"/>
<path fill="#3B393C" d="M125.564,42.399h31.62V57.83h-31.62v56.721c0,12.652,3.718,14.697,17.115,14.697
	c5.95,0,15.993-2.045,17.663-2.609l2.606,16.003c-4.461,1.297-13.208,3.347-19.898,3.347c-19.158,0-36.644-0.191-36.644-31.248
	v-56.91H91.532V42.399h14.875V17.446l14.501-3.865l4.647,18.84L125.564,42.399z"/>
</svg>
